<svg width="50" height="49" viewBox="0 0 50 49" fill="none" xmlns="http://www.w3.org/2000/svg">
<g filter="url(#filter0_d_58_7626)">
<rect x="11.5376" y="8.08105" width="26.9249" height="26.9249" rx="13.4624" fill="white" shape-rendering="crispEdges"/>
<path opacity="0.4" d="M29.8466 26.9288H20.1536C19.9328 26.9288 19.7498 26.7458 19.7498 26.525C19.7498 26.3042 19.9328 26.1211 20.1536 26.1211H29.8466C30.0674 26.1211 30.2505 26.3042 30.2505 26.525C30.2505 26.7458 30.0674 26.9288 29.8466 26.9288Z" fill="#00665E"/>
<path opacity="0.4" d="M28.7804 16.9558C27.7357 15.9111 26.7125 15.8841 25.6409 16.9558L24.9893 17.6073C24.9355 17.6612 24.914 17.7473 24.9355 17.8227C25.3448 19.2498 26.4864 20.3914 27.9134 20.8006C27.9349 20.806 27.9565 20.8114 27.978 20.8114C28.0372 20.8114 28.0911 20.7899 28.1342 20.7468L28.7804 20.0952C29.3135 19.5675 29.572 19.0559 29.572 18.5389C29.5773 18.0058 29.3189 17.4889 28.7804 16.9558Z" fill="#00665E"/>
<path d="M26.944 21.2908C26.7878 21.2154 26.637 21.14 26.4916 21.0539C26.3732 20.9839 26.2601 20.9085 26.147 20.8277C26.0554 20.7685 25.9477 20.6823 25.8454 20.5961C25.8347 20.5908 25.797 20.5585 25.7539 20.5154C25.5762 20.3646 25.3769 20.1707 25.1992 19.9553C25.1831 19.9446 25.1562 19.9069 25.1185 19.8584C25.0646 19.7938 24.9731 19.6861 24.8923 19.5622C24.8277 19.4815 24.7523 19.363 24.6823 19.2445C24.5961 19.0991 24.5207 18.9537 24.4453 18.803C24.3699 18.6414 24.3107 18.4852 24.2569 18.3398L20.8751 21.7216C20.8051 21.7916 20.7405 21.9262 20.7243 22.0178L20.4335 24.0802C20.3797 24.4464 20.482 24.791 20.7082 25.0226C20.902 25.2111 21.1713 25.3134 21.4621 25.3134C21.5267 25.3134 21.5913 25.308 21.6559 25.2972L23.7237 25.0064C23.8207 24.9903 23.9553 24.9257 24.0199 24.8557L27.4017 21.4739C27.2509 21.42 27.1055 21.3608 26.944 21.2908Z" fill="#00665E"/>
</g>
<defs>
<filter id="filter0_d_58_7626" x="0.767649" y="0.54209" width="48.4647" height="48.4647" filterUnits="userSpaceOnUse" color-interpolation-filters="sRGB">
<feFlood flood-opacity="0" result="BackgroundImageFix"/>
<feColorMatrix in="SourceAlpha" type="matrix" values="0 0 0 0 0 0 0 0 0 0 0 0 0 0 0 0 0 0 127 0" result="hardAlpha"/>
<feOffset dy="3.23098"/>
<feGaussianBlur stdDeviation="5.38497"/>
<feComposite in2="hardAlpha" operator="out"/>
<feColorMatrix type="matrix" values="0 0 0 0 0 0 0 0 0 0 0 0 0 0 0 0 0 0 0.2 0"/>
<feBlend mode="normal" in2="BackgroundImageFix" result="effect1_dropShadow_58_7626"/>
<feBlend mode="normal" in="SourceGraphic" in2="effect1_dropShadow_58_7626" result="shape"/>
</filter>
</defs>
</svg>
