<?xml version="1.0" standalone="no"?>
<svg version="1.0" xmlns="http://www.w3.org/2000/svg"
 width="512.000000pt" height="512.000000pt" viewBox="0 0 512.000000 512.000000"
 preserveAspectRatio="xMidYMid meet">

<g transform="translate(0.000000,512.000000) scale(0.100000,-0.100000)"
fill="#000000" stroke="none">
<path d="M4185 4790 c-65 -14 -126 -39 -175 -70 -25 -16 -758 -744 -1630
-1617 -1443 -1445 -1590 -1596 -1637 -1673 -61 -99 -413 -888 -420 -942 -13
-88 77 -178 165 -165 55 7 842 358 941 419 78 48 225 191 1669 1633 871 869
1597 1599 1613 1622 45 64 79 165 85 252 17 228 -126 446 -342 522 -66 23
-207 33 -269 19z m251 -185 c70 -34 136 -101 170 -173 25 -49 28 -69 29 -147
0 -143 -16 -169 -250 -404 l-195 -196 -252 253 -253 252 195 194 c239 237 277
259 428 251 54 -3 89 -11 128 -30z m-611 -785 l250 -250 -1315 -1313 c-1028
-1027 -1331 -1324 -1389 -1362 -68 -45 -340 -175 -365 -175 -14 0 -286 271
-286 286 0 27 131 296 179 369 43 65 305 331 1360 1388 718 719 1308 1307
1311 1307 3 0 118 -113 255 -250z m-2988 -3176 c-7 -7 -341 -153 -344 -151 -1
2 32 81 74 176 l77 172 98 -98 c53 -53 96 -98 95 -99z"/>
</g>
</svg>
