<?xml version="1.0" standalone="no"?>
<svg version="1.0" xmlns="http://www.w3.org/2000/svg"
 width="512.000000pt" height="512.000000pt" viewBox="0 0 512.000000 512.000000"
 preserveAspectRatio="xMidYMid meet">

<g transform="translate(0.000000,512.000000) scale(0.100000,-0.100000)"
fill="#000000" stroke="none">
<path d="M1895 5106 c-38 -17 -80 -62 -94 -99 -7 -19 -11 -206 -11 -552 l0
-524 -238 -3 -239 -3 -40 -27 c-24 -16 -49 -44 -62 -70 -21 -44 -21 -52 -21
-684 1 -696 6 -793 55 -959 145 -494 548 -866 1045 -964 l85 -17 5 -540 5
-540 28 -43 c70 -106 224 -106 294 0 l28 43 5 539 5 540 85 17 c501 102 900
471 1045 965 49 166 54 263 55 959 0 632 0 640 -21 684 -13 26 -38 54 -62 70
l-40 27 -239 3 -238 3 0 525 c0 578 1 564 -63 621 -64 56 -154 56 -221 1 -68
-56 -66 -40 -66 -623 l0 -525 -420 0 -420 0 0 528 c0 589 3 566 -71 624 -44
35 -126 47 -174 24z m1672 -2128 c-3 -579 -4 -595 -26 -673 -83 -296 -281
-531 -552 -659 -155 -73 -236 -90 -429 -90 -193 0 -274 17 -429 90 -219 103
-382 266 -485 485 -91 193 -89 174 -93 847 l-4 592 1011 0 1011 0 -4 -592z"/>
</g>
</svg>
